<svg xmlns="http://www.w3.org/2000/svg" xmlns:xlink="http://www.w3.org/1999/xlink" width="16" height="16" version="1.1" viewBox="0 0 16 16"><title>dates Icon</title><desc>Created with Sketch.</desc><defs><path id="path-1" d="M24,10 L24,11 L16,11 L16,10 L15,10 L15,11 L13,11 L13,12 L15,12 L15,13 L16,13 L16,12 L24,12 L24,13 L25,13 L25,12 L27,12 L27,15 L13,15 L13,12 L12,12 L12,24.9999375 L13,24.9999375 L13,16 L27,16 L27,24.9999375 L28,24.9999375 L28,12 L27.0000625,12 L27.0000625,11 L25,11 L25,10 L24,10 Z M13,26 L13,25 L27.0000625,25 L27.0000625,26 L13,26 Z M16,18 L18,18 L18,20 L16,20 L16,18 Z M16,21 L18,21 L18,23 L16,23 L16,21 Z M19,18 L21,18 L21,20 L19,20 L19,18 Z M19,21 L21,21 L21,23 L19,23 L19,21 Z M22,18 L24,18 L24,20 L22,20 L22,18 Z M22,21 L24,21 L24,23 L22,23 L22,21 Z"/></defs><g id="invoices-web" fill="none" fill-rule="evenodd" stroke="none" stroke-width="1"><g id="1st-version-B" transform="translate(-162.000000, -328.000000)"><g id="actions-header" transform="translate(150.000000, 318.000000)"><g id="02-Inputs-/-Dropdown-/-Regular-/-01-Default"><mask id="mask-2" fill="#fff"><use xlink:href="#path-1"/></mask><use id="dates-Icon" fill="#3899EC" xlink:href="#path-1"/></g></g></g></g></svg>