<svg xmlns="http://www.w3.org/2000/svg" xmlns:xlink="http://www.w3.org/1999/xlink" width="15" height="14" version="1.1" viewBox="0 0 15 14"><title>chat</title><desc>Created with Sketch.</desc><g id="Page-1" fill="none" fill-rule="evenodd" stroke="none" stroke-width="1"><g id="chat" fill="#555"><g id="Imported-Layers"><path id="Fill-1" d="M0,0 L0,11 L4,11 L4,14 L5,14 L9,11 L15,11 L15,0 L0,0 L0,0 Z M14,10 L9,10 L5,13 L5,10 L1,10 L1,1 L14,1 L14,10 L14,10 Z"/><path id="Fill-2" d="M4,3 L11,3 L11,4 L4,4 L4,3 Z"/><path id="Fill-3" d="M4,5 L11,5 L11,6 L4,6 L4,5 Z"/><path id="Fill-4" d="M4,7 L11,7 L11,8 L4,8 L4,7 Z"/></g></g></g></svg>