<svg xmlns="http://www.w3.org/2000/svg" xmlns:xlink="http://www.w3.org/1999/xlink" width="15" height="14" version="1.1" viewBox="0 0 15 14"><title>download</title><desc>Created with Sketch.</desc><g id="Page-1" fill="none" fill-rule="evenodd" stroke="none" stroke-width="1"><g id="download" fill="#1D2D3C"><g id="Imported-Layers"><path id="Fill-1" d="M14,8 L14,11.5 C14,12.327 13.327,13 12.5,13 L2.5,13 C1.673,13 1,12.327 1,11.5 L1,8 L0,8 L0,11.5 C0,12.878 1.122,14 2.5,14 L12.5,14 C13.878,14 15,12.878 15,11.5 L15,8 L14,8"/><path id="Fill-2" d="M8,8.377 L8,0 L7,0 L7,8.377 L4.282,5.679 L3.718,6.247 L7.5,10 L11.282,6.247 L10.718,5.679 L8,8.377"/></g></g></g></svg>