<svg xmlns="http://www.w3.org/2000/svg" xmlns:xlink="http://www.w3.org/1999/xlink" id="Layer_1" width="36" height="36" x="0" style="enable-background:new 0 0 36 36" y="0" version="1.1" viewBox="0 0 36 36" xml:space="preserve"><style type="text/css">.st0{fill:#ee5951}</style><g><path d="M17.9,23c-0.3,0-0.6,0.1-0.8,0.3c-0.2,0.2-0.3,0.5-0.3,0.8c0,0.3,0.1,0.6,0.3,0.8c0.2,0.2,0.5,0.3,0.8,0.3 c0.3,0,0.6-0.1,0.8-0.3c0.2-0.2,0.3-0.5,0.3-0.8c0-0.3-0.1-0.6-0.3-0.8C18.5,23.1,18.3,23,17.9,23z" class="st0"/><path d="M18,10.4c-0.3,0-0.6,0.1-0.8,0.4c-0.2,0.3-0.4,0.6-0.4,1.1c0,0.2,0,0.1,0.1,0.5l0.9,8.2h0.4l0.9-8.2 c0-0.3,0-0.4,0-0.5c0-0.5-0.1-0.8-0.3-1.1C18.6,10.4,18.3,10.4,18,10.4z" class="st0"/><path d="M18,0C8.1,0,0,8.1,0,18c0,9.9,8.1,18,18,18s18-8.1,18-18C36,8.1,27.9,0,18,0z M18,35C8.6,35,1,27.4,1,18 S8.6,1,18,1s17,7.6,17,17S27.4,35,18,35z" class="st0"/></g></svg>