<svg xmlns="http://www.w3.org/2000/svg" xmlns:xlink="http://www.w3.org/1999/xlink" width="13" height="13" version="1.1" viewBox="0 0 13 13"><title>Combined Shape</title><desc>Created with Sketch.</desc><g id="Billing" fill="none" fill-rule="evenodd" stroke="none" stroke-width="1"><g id="002-billing-Default-hover" fill="#3899EC" fill-rule="nonzero" transform="translate(-1164.000000, -638.000000)"><g id="1260-starter"><g id="Form/-Card-" transform="translate(246.000000, 216.000000)"><g id="Group-6" transform="translate(906.000000, 410.000000)"><path id="Combined-Shape" d="M18,18 L18,12.5 C18,12.2238576 18.2238576,12 18.5,12 C18.7761424,12 19,12.2238576 19,12.5 L19,18 L24.5,18 C24.7761424,18 25,18.2238576 25,18.5 C25,18.7761424 24.7761424,19 24.5,19 L19,19 L19,24.5 C19,24.7761424 18.7761424,25 18.5,25 C18.2238576,25 18,24.7761424 18,24.5 L18,19 L12.5,19 C12.2238576,19 12,18.7761424 12,18.5 C12,18.2238576 12.2238576,18 12.5,18 L18,18 L18,18 Z" transform="translate(18.500000, 18.500000) rotate(-360.000000) translate(-18.500000, -18.500000)"/></g></g></g></g></g></svg>