<svg xmlns="http://www.w3.org/2000/svg" xmlns:xlink="http://www.w3.org/1999/xlink" width="15" height="14" version="1.1" viewBox="0 0 15 14"><title>export</title><desc>Created with Sketch.</desc><g id="full-flow" fill="none" fill-rule="evenodd" stroke="none" stroke-width="1"><g id="01list" fill="#20455E" transform="translate(-1261.000000, -215.000000)"><g id="Group-26" transform="translate(1243.000000, 157.000000)"><path id="export" d="M25,59.5 L25,69 L26,69 L26,59.5 L28.5,62 L29,61.375 L25.5,58 L22,61.375 L22.5,62 L25,59.5 Z M32,66 L32,69.5 C32,70.327 31.327,71 30.5,71 L20.5,71 C19.673,71 19,70.327 19,69.5 L19,66 L18,66 L18,69.5 C18,70.878 19.122,72 20.5,72 L30.5,72 C31.878,72 33,70.878 33,69.5 L33,66 L32,66 Z"/></g></g></g></svg>