<svg xmlns="http://www.w3.org/2000/svg" xmlns:xlink="http://www.w3.org/1999/xlink" id="Layer_1" x="0" y="0" version="1.1" viewBox="-13.7 17.9 16.2 16.7" xml:space="preserve" style="enable-background:new -13.7 17.9 16.2 16.7"><style type="text/css">.st0{fill:#3899ec}</style><path d="M2.5,34l-3.9-4.3c1.1-1.2,1.7-2.9,1.7-4.6c0-3.9-3.1-7.1-7-7.1c-3.9,0-7,3.2-7,7.1s3.1,7.1,7,7.1	c1.8,0,3.3-0.7,4.6-1.7l3.9,4.3L2.5,34z M-12.7,25c0-3.4,2.7-6.1,6-6.1s6,2.7,6,6.1c0,3.4-2.7,6.1-6,6.1S-12.7,28.3-12.7,25z" class="st0"/></svg>