<svg xmlns="http://www.w3.org/2000/svg" xmlns:xlink="http://www.w3.org/1999/xlink" width="14" height="14" version="1.1" viewBox="0 0 14 14"><title>Paly icon</title><desc>Created with Sketch.</desc><g id="Page-1" fill="none" fill-rule="evenodd" stroke="none" stroke-width="1"><g id="02-list-2" transform="translate(-1277.000000, -545.000000)"><g id="Tooltip-Copy" transform="translate(1247.000000, 429.000000)"><g id="Paly-icon" transform="translate(30.000000, 116.000000)"><path id="Fill-3" fill="#1D2D3C" d="M7,0 C3.134,0 0,3.134 0,7 C0,10.866 3.134,14 7,14 C10.866,14 14,10.866 14,7 C14,3.134 10.866,0 7,0 M7,1 C10.308,1 13,3.692 13,7 C13,10.308 10.308,13 7,13 C3.692,13 1,10.308 1,7 C1,3.692 3.692,1 7,1"/><polygon id="Path-3" stroke="#162D3D" points="5 4 5 10 10 7"/></g></g></g></g></svg>