<svg xmlns="http://www.w3.org/2000/svg" xmlns:xlink="http://www.w3.org/1999/xlink" width="19" height="20" version="1.1" viewBox="0 0 19 20"><title>Group</title><desc>Created with Sketch.</desc><g id="Page-1" fill="none" fill-rule="evenodd" stroke="none" stroke-width="1"><g id="Group" fill="#979797"><path id="Oval-1" d="M9,17.65 C13.7772631,17.65 17.65,13.7772631 17.65,9 C17.65,4.22273691 13.7772631,0.35 9,0.35 C4.22273691,0.35 0.35,4.22273691 0.35,9 C0.35,13.7772631 4.22273691,17.65 9,17.65 L9,17.65 L9,17.65 Z M9,16.35 C4.94070709,16.35 1.65,13.0592929 1.65,9 C1.65,4.94070709 4.94070709,1.65 9,1.65 C13.0592929,1.65 16.35,4.94070709 16.35,9 C16.35,13.0592929 13.0592929,16.35 9,16.35 L9,16.35 L9,16.35 Z"/><polygon id="Line" points="14.04 15.96 17.576 19.495 18.036 19.955 18.955 19.036 18.495 18.576 14.96 15.04 14.5 14.581 13.581 15.5"/></g></g></svg>