<svg xmlns="http://www.w3.org/2000/svg" xmlns:xlink="http://www.w3.org/1999/xlink" width="14" height="14" version="1.1" viewBox="0 0 14 14"><title>Terminate</title><desc>Created with Sketch.</desc><g id="Page-1" fill="none" fill-rule="evenodd" stroke="none" stroke-width="1"><g id="Desktop-1440px---inner-grid" fill="#1D2D3C" transform="translate(-1278.000000, -626.000000)"><g id="Tooltip" transform="translate(1248.000000, 456.000000)"><g id="Terminate" transform="translate(30.000000, 170.000000)"><polygon id="Fill-1" points="4.586 3.879 3.879 4.586 9.414 10.122 10.122 9.415"/><polygon id="Fill-2" points="9.414 3.879 3.878 9.415 4.586 10.122 10.121 4.586"/><path id="Fill-3" d="M7,0 C3.134,0 0,3.134 0,7 C0,10.866 3.134,14 7,14 C10.866,14 14,10.866 14,7 C14,3.134 10.866,0 7,0 M7,1 C10.308,1 13,3.692 13,7 C13,10.308 10.308,13 7,13 C3.692,13 1,10.308 1,7 C1,3.692 3.692,1 7,1"/></g></g></g></g></svg>