<svg xmlns="http://www.w3.org/2000/svg" xmlns:xlink="http://www.w3.org/1999/xlink" width="15" height="15" version="1.1" viewBox="0 0 15 15"><g id="Symbols" fill="none" fill-rule="evenodd" stroke="none" stroke-width="1"><g id="04-Buttons-/-03-Small-/-Blue-/-01-Default-with-icon" fill="#FFF" transform="translate(-24.000000, -7.000000)"><g id="Page-1" transform="translate(24.000000, 7.000000)"><path id="Fill-1" d="M14,8.0371 L14,11.5371 C14,12.3641 13.327,13.0371 12.5,13.0371 L2.5,13.0371 C1.673,13.0371 1,12.3641 1,11.5371 L1,8.0371 L0,8.0371 L0,11.5371 C0,12.9151 1.122,14.0371 2.5,14.0371 L12.5,14.0371 C13.878,14.0371 15,12.9151 15,11.5371 L15,8.0371 L14,8.0371 Z"/><polygon id="Fill-3" points="7 1.623 7 11.037 8 11.037 8 1.623 10.718 4.321 11.282 3.753 7.5 0 3.718 3.753 4.282 4.321"/></g></g></g></svg>