<svg xmlns="http://www.w3.org/2000/svg" xmlns:xlink="http://www.w3.org/1999/xlink" width="10" height="10" version="1.1" viewBox="0 0 10 10"><title>x</title><desc>Created with Sketch.</desc><g id="***full-flow" fill="none" fill-rule="evenodd" stroke="none" stroke-width="1"><g id="manage-labels-pop-up" fill="#3899EC" fill-rule="nonzero" transform="translate(-1208.000000, -287.000000)"><g id="Group-6-Copy-2" transform="translate(1195.000000, 273.000000)"><g id="cancel-comment" transform="translate(18.192388, 19.192388) rotate(-315.000000) translate(-18.192388, -19.192388) translate(11.692388, 12.692388)"><g id="x" transform="translate(0.000000, 0.000000)"><path id="Line" d="M6,0.5 L6,12.5 C6,12.7761424 6.22385763,13 6.5,13 C6.77614237,13 7,12.7761424 7,12.5 L7,0.5 C7,0.223857625 6.77614237,2.57127653e-12 6.5,2.57127653e-12 C6.22385763,2.57127653e-12 6,0.223857625 6,0.5 L6,0.5 Z"/><path id="Line" d="M12.5,6 L0.5,6 C0.223857625,6 2.01438866e-12,6.22385763 2.01438866e-12,6.5 C2.01438866e-12,6.77614237 0.223857625,7 0.5,7 L12.5,7 C12.7761424,7 13,6.77614237 13,6.5 C13,6.22385763 12.7761424,6 12.5,6 L12.5,6 Z"/></g></g></g></g></g></svg>